<svg role="img" viewBox="0 0 24 24" xmlns="http://www.w3.org/2000/svg"><title>DeepSeek</title><path d="M12 0C5.373 0 0 5.373 0 12s5.373 12 12 12 12-5.373 12-12S18.627 0 12 0zm3.248 4.307c.398-.008.747.07.982.283.653.588.14 1.907-.211 2.474-.105.17-.263.355-.442.518a6.74 6.74 0 0 0-.596-.395c-.263-.153-.488-.262-.718-.359.142-.227.28-.473.375-.685.244-.546.23-.92.127-1.054-.054-.07-.158-.113-.338-.081-.533.092-1.37.724-2.063 1.529a8.9 8.9 0 0 0-.517-.088 8.21 8.21 0 0 0-.694-.07c.894-1.147 2.01-2.036 3.105-2.06.327-.007.66-.004.99-.012zM8.89 6.855c1.26-.043 2.244.488 2.86 1.08.039.037.07.073.105.11a2.023 2.023 0 0 0-.299.098c-.245.105-.516.256-.788.435a2.81 2.81 0 0 0-.67-.57c-.579-.376-1.293-.52-2.116-.224a.078.078 0 0 1-.098-.039.077.077 0 0 1 .035-.101c.573-.344 1.28-.6 1.85-.725a4.22 4.22 0 0 1-.879-.064zm3.914 1.422c.092-.006.159.029.159.029s-.063.047-.141.113c-.37.3-.714.67-1.007 1.082-.66.93-1.056 2.046-1.139 3.126-.05.658.017 1.238.195 1.702.068.178.155.346.265.504-.68-.557-1.137-1.328-1.336-2.148-.248-1.024-.119-2.143.53-2.99.44-.577 1.106-1.052 1.765-1.303.224-.085.479-.1.709-.115zm3.498.97c.615.24 1.253.623 1.694 1.215.633.846.803 1.964.585 3.005-.168.798-.59 1.566-1.224 2.152.098-.152.174-.312.234-.482.154-.44.204-.99.147-1.62-.094-1.037-.494-2.108-1.138-3.01a6.555 6.555 0 0 0-.781-.87 3.547 3.547 0 0 1-.133-.112c.18-.09.384-.17.616-.278zm-5.024.36a7.29 7.29 0 0 1 .58.024 7.016 7.016 0 0 1 .367.054c-.45.553-.805 1.16-1.082 1.797-.39.904-.607 1.89-.613 2.853-.004.697.106 1.37.36 1.987a4.3 4.3 0 0 0 .547.927c-.934-.455-1.697-1.218-2.155-2.166-.506-1.044-.575-2.339-.033-3.42.36-.72.977-1.295 1.634-1.732.13-.09.262-.16.395-.323zm5.908.75c.024 0 .095.075.095.075-.043.07-.113.145-.168.208-.375.422-.765.831-1.174 1.207a9.743 9.743 0 0 1-1.38 1.06 5.16 5.16 0 0 1-.863.437c-.011-.158-.04-.316-.078-.476-.03-.117-.067-.233-.113-.348a4.31 4.31 0 0 1 .612-.416 8.01 8.01 0 0 1 1.168-.563c.414-.16.853-.295 1.289-.402.363-.093.612-.782.612-.782zm-3.88 2.625c.054.002.107.01.16.027.173.055.293.204.349.393.067.228.05.516-.07.772-.213.455-.708.765-1.187.667-.372-.075-.526-.413-.464-.777.077-.45.469-.894.937-1.048a.742.742 0 0 1 .275-.034zm4.614 1.77a2.3 2.3 0 0 1-.084.26c-.157.399-.41.76-.752 1.016-.414.311-.945.44-1.472.363-.319-.047-.625-.155-.914-.31.21-.016.413-.048.613-.1.316-.083.623-.211.914-.382.421-.25.777-.588 1.082-.964-.092.133.24-.206.24-.206l.291-.265c.033-.028.066-.11.066-.11s.031.477.016.698zm.084-1.283a.06.06 0 0 1 .016.004.024.024 0 0 1 .012.017c-.004.012-.02.02-.035.016a.024.024 0 0 1-.013-.017c.004-.012.02-.02.035-.016l-.015-.004z"/></svg>
