<svg role="img" viewBox="0 0 24 24" xmlns="http://www.w3.org/2000/svg"><title>Mistral AI</title><path d="M3.428 0h3.428v3.428H3.428zm13.716 0h3.428v3.428h-3.428zM0 3.428h3.428v3.429H0zm3.428 0h3.428v3.429H3.428zm6.857 0h3.429v3.429h-3.429zm3.429 0h3.428v3.429h-3.428zm3.428 0h3.429v3.429h-3.429zm3.429 0H24v3.429h-3.429zM3.428 6.857h3.428v3.429H3.428zm6.857 0h3.429v3.429h-3.429zm6.857 0h3.429v3.429h-3.429zM3.428 10.286h3.428v3.428H3.428zm3.428 0h3.429v3.428H6.856zm3.429 0h3.429v3.428h-3.429zm3.429 0h3.428v3.428h-3.428zm3.428 0h3.429v3.428h-3.429zM3.428 13.714h3.428v3.429H3.428zm6.857 0h3.429v3.429h-3.429zm6.857 0h3.429v3.429h-3.429zM0 17.143h3.428v3.429H0zm3.428 0h3.428v3.429H3.428zm6.857 0h3.429v3.429h-3.429zm3.429 0h3.428v3.429h-3.428zm3.428 0h3.429v3.429h-3.429zm3.429 0H24v3.429h-3.429zM3.428 20.572h3.428V24H3.428zm13.716 0h3.428V24h-3.428z"/></svg>
