<svg role="img" viewBox="0 0 24 24" xmlns="http://www.w3.org/2000/svg"><title>Ollama</title><path d="M12 0C5.373 0 0 5.373 0 12s5.373 12 12 12 12-5.373 12-12S18.627 0 12 0zm-.6 4.8c.9-.3 1.8-.3 2.7.1 1.2.5 2 1.5 2.3 2.7.2.8.2 1.6 0 2.3-.3 1-.8 1.8-1.6 2.4-.5.4-1.1.7-1.7.8-1.1.2-2.1-.1-2.9-.8-.8-.7-1.3-1.7-1.5-2.8-.1-.6 0-1.3.2-1.9.4-1.2 1.3-2.2 2.5-2.8zm-3.3 8.1c.6-.2 1.3-.2 1.9 0 .7.2 1.2.6 1.6 1.2.5.7.7 1.5.5 2.4-.2 1.1-.8 2-1.7 2.6-.6.4-1.3.6-2 .5-.9-.1-1.6-.5-2.1-1.2-.5-.7-.7-1.5-.6-2.4.2-1.3.9-2.3 2.4-3.1zm7.8 0c1.5.8 2.2 1.8 2.4 3.1.1.9-.1 1.7-.6 2.4-.5.7-1.2 1.1-2.1 1.2-.7.1-1.4-.1-2-.5-.9-.6-1.5-1.5-1.7-2.6-.2-.9 0-1.7.5-2.4.4-.6.9-1 1.6-1.2.6-.2 1.3-.2 1.9 0z"/></svg>
